<svg height="682.66669pt" viewBox="-21 -21 682.66669 682.66669" width="682.66669pt" xmlns="http://www.w3.org/2000/svg"><path d="m480 0v640h-480v-508.199219l131.800781-131.800781zm0 0" fill="#b3f4ef"/><path d="m80 200h320v120h-320zm0 0" fill="#77e5e0"/><path d="m132 0h-.28125l-131.71875 131.71875v.28125h132zm0 0" fill="#77e5e0"/><path d="m260 40h40v40h-40zm0 0" fill="#fff"/><path d="m180 40h40v40h-40zm0 0" fill="#fff"/><path d="m400 296.839844c-14.082031 6.175781-27.242188 14.039062-39.417969 23.160156h39.417969zm0 0" fill="#8b8b8e"/><path d="m480 280v360h-119.800781c-48.597657-36.402344-80.199219-94.601562-80.199219-160 0-110.199219 89.800781-200 200-200zm0 0" fill="#77e5e0"/><path d="m640 480c0 88.363281-71.636719 160-160 160s-160-71.636719-160-160 71.636719-160 160-160 160 71.636719 160 160zm0 0" fill="#ffe163"/><path d="m80 360h220v40h-220zm0 0" fill="#77e5e0"/><path d="m80 440h180v40h-180zm0 0" fill="#77e5e0"/><path d="m540 500h-80v-100h40v60h40zm0 0" fill="#fff"/></svg>