<?xml version="1.0" encoding="iso-8859-1"?>
<!-- Generator: Adobe Illustrator 19.0.0, SVG Export Plug-In . SVG Version: 6.00 Build 0)  -->
<svg version="1.1" id="Capa_1" xmlns="http://www.w3.org/2000/svg" xmlns:xlink="http://www.w3.org/1999/xlink" x="0px" y="0px"
	 viewBox="0 0 512 512" style="enable-background:new 0 0 512 512;" xml:space="preserve">
<polygon style="fill:#81E3E2;" points="437,482 437,512 256,512 196,452 "/>
<polygon style="fill:#42C8C6;" points="437,452 437,482 256,482 196,422 "/>
<polygon style="fill:#ABECEC;" points="256,452 256,512 75,512 75,482 "/>
<polygon style="fill:#81E3E2;" points="437,422 437,452 256,452 196,397 "/>
<polygon style="fill:#D5F6F5;" points="437,287 437,422 256,422 166,287 "/>
<polygon style="fill:#81E3E2;" points="256,402 256,482 75,482 75,452 "/>
<g>
	<polygon style="fill:#ABECEC;" points="256,372 256,452 75,452 75,422 	"/>
	<polygon style="fill:#ABECEC;" points="437,35 437,317 352,337 332,422 256,422 206,248.5 256,35 	"/>
</g>
<rect x="75" y="35" style="fill:#D5F6F5;" width="181" height="387"/>
<g>
	<rect x="280.2" style="fill:#4D4D4D;" width="30" height="70"/>
	<rect x="358.6" style="fill:#4D4D4D;" width="30" height="70"/>
</g>
<g>
	<rect x="201.8" style="fill:#969696;" width="30" height="70"/>
	<rect x="123.4" style="fill:#969696;" width="30" height="70"/>
</g>
<polygon style="fill:#FFFFFF;" points="437,317 332,422 332,317 "/>
<g>
</g>
<g>
</g>
<g>
</g>
<g>
</g>
<g>
</g>
<g>
</g>
<g>
</g>
<g>
</g>
<g>
</g>
<g>
</g>
<g>
</g>
<g>
</g>
<g>
</g>
<g>
</g>
<g>
</g>
</svg>
